<?xml version="1.0" standalone="no"?>
<!DOCTYPE svg PUBLIC "-//W3C//DTD SVG 20010904//EN"
 "http://www.w3.org/TR/2001/REC-SVG-20010904/DTD/svg10.dtd">
<svg version="1.0" xmlns="http://www.w3.org/2000/svg"
 width="264.000000pt" height="398.000000pt" viewBox="0 0 264.000000 398.000000"
 preserveAspectRatio="xMidYMid meet">

<g transform="translate(0.000000,398.000000) scale(0.100000,-0.100000)"
fill="#000000" stroke="none">
<path d="M0 1990 l0 -1990 1320 0 1320 0 0 1990 0 1990 -565 0 -565 0 0 -67
c0 -41 4 -63 9 -55 6 10 10 4 15 -18 10 -51 7 -170 -4 -170 -17 0 -11 -38 11
-82 l21 -42 -33 -28 c-38 -31 -48 -33 -72 -15 -14 10 -17 40 -18 245 l-1 233
-76 -3 -76 -3 -10 -35 c-5 -19 -36 -116 -68 -214 -32 -99 -58 -186 -58 -194 0
-28 -41 -72 -67 -72 -23 0 -25 3 -20 38 5 40 32 149 49 197 22 64 20 93 -12
190 l-33 95 -533 0 -534 0 0 -1990z m1908 1815 c0 -27 -6 -68 -14 -90 l-14
-40 5 64 c3 35 6 89 6 120 1 47 3 51 9 26 4 -16 8 -52 8 -80z m-198 -18 c0
-10 -4 -15 -10 -12 -5 3 -10 18 -10 33 0 21 2 24 10 12 5 -8 10 -23 10 -33z
m71 -47 c16 -51 18 -71 10 -93 -17 -44 -28 -31 -40 48 -22 153 -11 171 30 45z
m79 0 c0 -5 -2 -10 -4 -10 -3 0 -8 5 -11 10 -3 6 -1 10 4 10 6 0 11 -4 11 -10z
m-489 -1188 c0 -507 -2 -926 -6 -932 -3 -6 -12 -36 -18 -68 -10 -47 -13 135
-16 931 -3 828 -1 991 10 998 8 4 17 5 21 1 4 -4 8 -423 9 -930z m-108 913 c1
-5 -6 -11 -15 -13 -11 -2 -18 3 -18 13 0 17 30 18 33 0z m-248 -25 c13 -20 -6
-50 -31 -50 -26 0 -40 20 -30 45 6 17 51 20 61 5z m165 -14 c0 -8 -4 -17 -8
-20 -13 -8 -35 11 -28 23 10 16 36 14 36 -3z m83 -52 c11 -35 19 -1687 10
-2164 -3 -184 -9 -326 -14 -315 -4 11 -8 46 -8 77 -1 33 -6 60 -13 64 -7 4
-39 9 -73 11 -116 6 -180 15 -205 28 l-25 14 31 1 c17 0 33 -3 37 -6 3 -4 58
-8 122 -9 l115 -3 1 36 c1 21 3 62 4 92 1 30 -4 536 -11 1124 -8 587 -11 1073
-8 1078 10 16 28 3 37 -28z m-204 7 c11 -7 8 -18 -15 -57 -52 -91 -197 -299
-260 -374 -35 -41 -76 -89 -90 -106 -15 -17 -41 -47 -58 -67 -73 -83 -191
-235 -229 -296 -52 -83 -68 -111 -110 -197 -144 -290 -136 -571 24 -809 54
-81 216 -235 247 -235 14 0 72 -49 72 -61 0 -5 -19 -1 -42 8 -138 55 -308 215
-381 359 -42 84 -69 198 -74 322 -8 163 15 265 98 437 56 115 72 143 152 257
91 131 105 149 165 217 31 35 72 83 91 105 19 23 47 55 62 71 47 51 89 102 89
110 0 4 14 23 30 42 17 18 30 40 30 47 0 7 11 23 25 36 14 13 25 28 25 33 0
15 72 130 93 150 21 19 35 21 56 8z m268 -1923 c-3 -8 -6 -5 -6 6 -1 11 2 17
5 13 3 -3 4 -12 1 -19z m0 -90 c-3 -7 -5 -2 -5 12 0 14 2 19 5 13 2 -7 2 -19
0 -25z m29 -160 c4 -7 10 -42 13 -78 l6 -65 310 0 c307 -1 583 14 660 34 22 6
53 11 68 11 42 0 74 -38 46 -56 -14 -8 -188 -18 -327 -19 -56 0 -102 -4 -102
-8 0 -8 -37 -3 -84 10 -12 3 -16 1 -12 -6 5 -8 -73 -10 -278 -7 l-284 4 -11
-43 c-6 -24 -8 -58 -4 -76 4 -21 3 -30 -4 -26 -7 4 -13 -10 -17 -36 -7 -48
-26 -86 -25 -52 0 44 26 191 37 212 16 29 15 85 -3 180 -8 43 -14 96 -14 118
1 32 3 28 10 -22 4 -35 11 -68 15 -75z m-663 -38 c14 -11 36 -20 50 -20 27 0
83 -39 57 -40 -9 0 -26 8 -39 17 -14 9 -21 11 -17 5 4 -7 3 -12 -3 -12 -5 0
-13 5 -16 10 -3 6 -15 10 -26 10 -10 0 -19 4 -19 10 0 5 -6 7 -14 4 -10 -4
-14 1 -13 15 2 26 8 26 40 1z m186 -61 c21 -7 29 -15 23 -21 -6 -6 -17 -6 -30
1 -10 6 -22 8 -25 5 -3 -3 -11 -3 -17 1 -9 6 -9 10 1 16 8 5 14 9 15 9 1 0 16
-5 33 -11z"/>
<path d="M1150 3945 c0 -19 5 -35 10 -35 6 0 10 9 10 19 0 11 3 26 6 35 4 11
1 16 -10 16 -12 0 -16 -10 -16 -35z"/>
</g>
</svg>
